<svg width="22" height="31" viewBox="0 0 22 31" fill="none" xmlns="http://www.w3.org/2000/svg">
<path fill-rule="evenodd" clip-rule="evenodd" d="M10 1.96501C10.12 1.00501 9.52 0.445011 8.64 0.365012C7.6 0.285011 6.88 0.845013 6.8 1.68501L5.88 8.08501H2.68C1.68 8.08501 1.24 8.84501 1.24 9.76501C1.24 10.645 1.68 11.405 2.68 11.405H5.44L4.52 17.965H1.4C0.44 17.965 0 18.725 0 19.645C0 20.525 0.44 21.285 1.4 21.285H4.08L3.2 27.565C3.08 28.525 3.68 29.085 4.6 29.165C5.6 29.205 6.32 28.685 6.44 27.805L7.32 21.285H12.72L12.4566 23.165H15.6947L15.96 21.285H19.12C20.12 21.285 20.56 20.525 20.56 19.645C20.56 18.725 20.12 17.965 19.12 17.965H16.4L17.28 11.405H20.4C21.4 11.405 21.84 10.645 21.84 9.76501C21.84 8.84501 21.4 8.08501 20.4 8.08501H17.76L18.6 1.96501C18.76 1.00501 18.16 0.445011 17.24 0.365012C16.24 0.285011 15.52 0.845013 15.4 1.68501L14.52 8.08501H9.16L10 1.96501ZM13.16 17.965H7.76L8.64 11.405H14.08L13.16 17.965Z" fill="url(#paint0_linear_126_350)"/>
<path d="M15.3834 1.79887C15.5232 0.805383 16.4419 0.113322 17.4353 0.253112V0.253112C18.4288 0.392902 19.1209 1.31161 18.9811 2.3051L15.9052 24.166L12.3074 23.6598L15.3834 1.79887Z" fill="#E28A8B"/>
<path d="M15.28 2.53516L18.8778 3.04138L15.5487 26.7011L11.951 26.1949L15.28 2.53516Z" fill="#4A90E2"/>
<rect x="15.28" y="2.53516" width="3.63319" height="0.854141" transform="rotate(8.00928 15.28 2.53516)" fill="#FFCA28"/>
<path d="M13.2737 29.8264L11.9504 26.1934L15.5482 26.6996L13.2737 29.8264Z" fill="#FFCCAA"/>
<path fill-rule="evenodd" clip-rule="evenodd" d="M12.6125 28.0098L13.2742 29.8262L14.4113 28.2629L12.6125 28.0098Z" fill="#36648A"/>
<path d="M11.9495 26.1924L12.6087 25.8539L13.1488 26.3612L13.8079 26.0226L14.348 26.5299L15.0072 26.1914L15.5473 26.6987L14.348 26.5299L13.1488 26.3612L11.9495 26.1924Z" fill="#FFCCAA"/>
<defs>
<linearGradient id="paint0_linear_126_350" x1="-17.0689" y1="10.1738" x2="11.607" y2="39.8102" gradientUnits="userSpaceOnUse">
<stop offset="0.44" stop-color="#A3C9F1"/>
</linearGradient>
</defs>
</svg>
