<svg width="90" height="30" viewBox="0 0 90 30" fill="none" xmlns="http://www.w3.org/2000/svg">
<path fill-rule="evenodd" clip-rule="evenodd" d="M10.0095 1.97869C10.1295 1.01868 9.52952 0.458683 8.64952 0.378684C7.60952 0.298683 6.88952 0.858685 6.80952 1.69868L5.88952 8.09869H2.68952C1.68952 8.09869 1.24952 8.85868 1.24952 9.77868C1.24952 10.6587 1.68952 11.4187 2.68952 11.4187H5.44952L4.52952 17.9787H1.40952C0.449521 17.9787 0.00952148 18.7387 0.00952148 19.6587C0.00952148 20.5387 0.449521 21.2987 1.40952 21.2987H4.08952L3.20952 27.5787C3.08952 28.5387 3.68952 29.0987 4.60952 29.1787C5.60952 29.2187 6.32952 28.6987 6.44952 27.8187L7.32952 21.2987H12.7295L12.4766 23.1038H15.7148L15.9695 21.2987H19.1295C20.1295 21.2987 20.5695 20.5387 20.5695 19.6587C20.5695 18.7387 20.1295 17.9787 19.1295 17.9787H16.4095L17.2895 11.4187H20.4095C21.4095 11.4187 21.8495 10.6587 21.8495 9.77868C21.8495 8.85868 21.4095 8.09869 20.4095 8.09869H17.7695L18.6095 1.97869C18.7695 1.01868 18.1695 0.458683 17.2495 0.378684C16.2495 0.298683 15.5295 0.858685 15.4095 1.69868L14.5295 8.09869H9.16952L10.0095 1.97869ZM13.1695 17.9787H7.76952L8.64952 11.4187H14.0895L13.1695 17.9787Z" fill="url(#paint0_linear_132_420)"/>
<path d="M15.2651 1.79189C15.4033 0.802257 16.3174 0.113691 17.3068 0.253936V0.253936C18.2961 0.394182 18.9861 1.31013 18.8479 2.29976L15.803 24.1013L12.2202 23.5935L15.2651 1.79189Z" fill="#E28A8B"/>
<path d="M15.1616 2.5293L18.7444 3.03717L15.4492 26.6306L11.8664 26.1228L15.1616 2.5293Z" fill="#4A90E2"/>
<rect width="3.6088" height="0.849792" transform="matrix(0.990091 0.14043 -0.138245 0.990399 15.1711 2.5293)" fill="#FFCA28"/>
<path d="M13.181 29.7451L11.8633 26.123L15.4381 26.6306L13.181 29.7451Z" fill="#FFCCAA"/>
<path fill-rule="evenodd" clip-rule="evenodd" d="M11.8644 26.1233L11.8628 26.123L11.864 26.1264L11.8644 26.1233ZM12.5218 27.932L13.1821 29.7445L14.3116 28.1865L12.5218 27.932ZM15.4386 26.6318L15.4387 26.6317L15.4387 26.6317L15.4386 26.6318Z" fill="#36648A"/>
<path d="M11.865 26.122L12.5193 25.7855L13.0559 26.2906L13.7101 25.9541L14.2467 26.4592L14.901 26.1227L15.4376 26.6278L14.2467 26.4592L13.0559 26.2906L11.865 26.122Z" fill="#FFCCAA"/>
<path d="M44.4578 23.2101H26.3138C25.5698 23.2101 25.2338 22.6101 25.2338 21.9141C25.2338 21.2181 25.5698 20.6181 26.3138 20.6181H33.8498V16.9701C30.0578 16.5381 27.8018 14.4261 27.8018 11.0421C27.8018 7.22614 30.6818 5.04214 35.3858 5.04214C40.0898 5.04214 42.9698 7.22614 42.9698 11.0421C42.9698 14.4261 40.7138 16.5381 36.9218 16.9701V20.6181H44.4578C45.2018 20.6181 45.5378 21.2181 45.5378 21.9141C45.5378 22.6101 45.2018 23.2101 44.4578 23.2101ZM39.8978 11.0421C39.8978 9.12214 38.5778 7.63414 35.3858 7.63414C32.1938 7.63414 30.8738 9.12214 30.8738 11.0421C30.8738 12.9621 32.1938 14.4501 35.3858 14.4501C38.5778 14.4501 39.8978 12.9621 39.8978 11.0421ZM52.8136 5.71414V8.85814C52.8136 9.26614 52.9576 9.41014 53.3656 9.41014H64.0696C64.7896 9.41014 65.1256 9.98614 65.1256 10.6581C65.1256 11.3541 64.7896 11.9301 64.0696 11.9301H51.7576C50.2216 11.9301 49.7176 11.4501 49.7176 9.93814V5.71414C49.7176 4.82614 50.4616 4.41814 51.2776 4.41814C52.0696 4.41814 52.8136 4.82614 52.8136 5.71414ZM66.3256 15.9381H48.1336C47.4136 15.9381 47.0776 15.3621 47.0776 14.6661C47.0776 13.9941 47.4136 13.4181 48.1336 13.4181H66.3256C67.0456 13.4181 67.3816 13.9941 67.3816 14.6661C67.3816 15.3621 67.0456 15.9381 66.3256 15.9381ZM50.5816 17.4501H62.7256C64.2616 17.4501 64.7656 17.9301 64.7656 19.4421V21.1941C64.7656 22.7061 64.2616 23.1861 62.7256 23.1861H52.9816C52.7416 23.1861 52.6216 23.3061 52.6216 23.5461V23.9781C52.6216 24.2181 52.7416 24.3381 52.9816 24.3381H64.2616C64.9336 24.3381 65.2456 24.9141 65.2456 25.5141C65.2456 26.1381 64.9336 26.6901 64.2616 26.6901H51.6856C50.1496 26.6901 49.6456 26.2101 49.6456 24.6981V22.9221C49.6456 21.4101 50.1496 20.9301 51.6856 20.9301H61.4296C61.6696 20.9301 61.7896 20.8101 61.7896 20.5701V20.1621C61.7896 19.9221 61.6696 19.8021 61.4296 19.8021H50.5816C49.9096 19.8021 49.5976 19.2501 49.5976 18.6261C49.5976 18.0261 49.9096 17.4501 50.5816 17.4501ZM71.5613 9.24214C71.5613 6.19414 74.3933 4.75414 79.0733 4.75414C83.7533 4.75414 86.5853 6.19414 86.5853 9.24214C86.5853 12.2901 83.7533 13.7301 79.0733 13.7301C74.3933 13.7301 71.5613 12.2901 71.5613 9.24214ZM83.5373 9.24214C83.5373 8.04214 82.2653 7.27414 79.0733 7.27414C75.8813 7.27414 74.6093 8.04214 74.6093 9.24214C74.6093 10.4421 75.8813 11.2101 79.0733 11.2101C82.2653 11.2101 83.5373 10.4421 83.5373 9.24214ZM88.1453 17.9781H70.0013C69.2573 17.9781 68.9213 17.3781 68.9213 16.6821C68.9213 15.9861 69.2573 15.3861 70.0013 15.3861H88.1453C88.8893 15.3861 89.2253 15.9861 89.2253 16.6821C89.2253 17.3781 88.8893 17.9781 88.1453 17.9781ZM75.1613 23.7861H85.9373C86.6813 23.7861 87.0173 24.3861 87.0173 25.0821C87.0173 25.7781 86.6813 26.3781 85.9373 26.3781H73.5533C72.0173 26.3781 71.5133 25.8981 71.5133 24.3861V20.6661C71.5133 19.7781 72.2573 19.3701 73.0733 19.3701C73.8653 19.3701 74.6093 19.7781 74.6093 20.6661V23.2341C74.6093 23.6421 74.7533 23.7861 75.1613 23.7861Z" fill="#4A90E2"/>
<defs>
<linearGradient id="paint0_linear_132_420" x1="-17.0594" y1="10.1875" x2="11.6165" y2="39.8239" gradientUnits="userSpaceOnUse">
<stop offset="0.44" stop-color="#A3C9F1"/>
</linearGradient>
</defs>
</svg>
