<svg width="187" height="69" viewBox="0 0 187 69" fill="none" xmlns="http://www.w3.org/2000/svg">
<path fill-rule="evenodd" clip-rule="evenodd" d="M14.9623 3.26805C15.1299 1.92764 14.2921 1.14573 13.0634 1.03404C11.6113 0.922333 10.606 1.70424 10.4943 2.87709L9.20974 11.8131H4.74172C3.34546 11.8131 2.73111 12.8743 2.73111 14.1588C2.73111 15.3875 3.34546 16.4487 4.74172 16.4487H8.59538L7.31083 25.6081H2.95451C1.61411 25.6081 0.999756 26.6693 0.999756 27.9538C0.999756 29.1825 1.61411 30.2437 2.95451 30.2437H6.69648L5.46777 39.0122C5.30022 40.3526 6.13797 41.1345 7.42253 41.2462C8.81878 41.302 9.82409 40.576 9.99164 39.3473L11.2203 30.2437H18.7601L18.4662 32.3413H22.988L23.284 30.2437H27.6962C29.0924 30.2437 29.7068 29.1825 29.7068 27.9538C29.7068 26.6693 29.0924 25.6081 27.6962 25.6081H23.8983L25.127 16.4487H29.4834C30.8796 16.4487 31.494 15.3875 31.494 14.1588C31.494 12.8743 30.8796 11.8131 29.4834 11.8131H25.7972L26.9701 3.26805C27.1935 1.92764 26.3557 1.14573 25.0712 1.03404C23.6749 0.922333 22.6696 1.70424 22.5021 2.87709L21.2734 11.8131H13.7895L14.9623 3.26805ZM19.3745 25.6081H11.8347L13.0634 16.4487H20.659L19.3745 25.6081Z" fill="url(#paint0_linear_132_647)"/>
<path d="M22.4791 2.51169C22.6743 1.12452 23.957 0.158227 25.3442 0.353409V0.353409C26.7314 0.548592 27.6977 1.83134 27.5025 3.21851L23.2077 33.7419L18.1843 33.0351L22.4791 2.51169Z" fill="#E28A8B"/>
<path d="M22.3347 3.53906L27.3581 4.24588L22.7099 37.2809L17.6865 36.5741L22.3347 3.53906Z" fill="#4A90E2"/>
<rect x="22.3347" y="3.53906" width="5.07286" height="1.1926" transform="rotate(8.00928 22.3347 3.53906)" fill="#FFCA28"/>
<path d="M19.5334 41.645L17.6858 36.5723L22.7092 37.2791L19.5334 41.645Z" fill="#FFCCAA"/>
<path fill-rule="evenodd" clip-rule="evenodd" d="M18.6104 39.1094L19.5341 41.6456L21.1219 39.4628L18.6104 39.1094Z" fill="#36648A"/>
<path d="M17.6845 36.571L18.6048 36.0983L19.359 36.8066L20.2793 36.3339L21.0334 37.0422L21.9537 36.5695L22.7079 37.2778L21.0334 37.0422L19.359 36.8066L17.6845 36.571Z" fill="#FFCCAA"/>
<path d="M63.3175 31.0946H37.9838C36.945 31.0946 36.4759 30.2568 36.4759 29.285C36.4759 28.3132 36.945 27.4755 37.9838 27.4755H48.506V22.3819C43.2114 21.7787 40.0615 18.8299 40.0615 14.1049C40.0615 8.77682 44.0827 5.7274 50.6507 5.7274C57.2187 5.7274 61.2399 8.77682 61.2399 14.1049C61.2399 18.8299 58.0899 21.7787 52.7953 22.3819V27.4755H63.3175C64.3563 27.4755 64.8255 28.3132 64.8255 29.285C64.8255 30.2568 64.3563 31.0946 63.3175 31.0946ZM56.9506 14.1049C56.9506 11.4241 55.1075 9.34649 50.6507 9.34649C46.1938 9.34649 44.3508 11.4241 44.3508 14.1049C44.3508 16.7857 46.1938 18.8634 50.6507 18.8634C55.1075 18.8634 56.9506 16.7857 56.9506 14.1049ZM74.9843 6.66568V11.0555C74.9843 11.6252 75.1853 11.8262 75.755 11.8262H90.7005C91.7058 11.8262 92.1749 12.6305 92.1749 13.5688C92.1749 14.5406 91.7058 15.3448 90.7005 15.3448H73.5098C71.3652 15.3448 70.6614 14.6746 70.6614 12.5635V6.66568C70.6614 5.42581 71.7003 4.85613 72.8396 4.85613C73.9454 4.85613 74.9843 5.42581 74.9843 6.66568ZM93.8505 20.941H68.4498C67.4445 20.941 66.9753 20.1367 66.9753 19.165C66.9753 18.2267 67.4445 17.4224 68.4498 17.4224H93.8505C94.8558 17.4224 95.3249 18.2267 95.3249 19.165C95.3249 20.1367 94.8558 20.941 93.8505 20.941ZM71.8678 23.0521H88.8239C90.9686 23.0521 91.6723 23.7223 91.6723 25.8335V28.2797C91.6723 30.3908 90.9686 31.061 88.8239 31.061H75.2188C74.8837 31.061 74.7162 31.2286 74.7162 31.5637V32.1669C74.7162 32.502 74.8837 32.6695 75.2188 32.6695H90.9686C91.9069 32.6695 92.3425 33.4738 92.3425 34.3115C92.3425 35.1828 91.9069 35.9535 90.9686 35.9535H73.4093C71.2646 35.9535 70.5609 35.2833 70.5609 33.1722V30.6924C70.5609 28.5813 71.2646 27.9111 73.4093 27.9111H87.0144C87.3495 27.9111 87.517 27.7435 87.517 27.4084V26.8388C87.517 26.5037 87.3495 26.3361 87.0144 26.3361H71.8678C70.9295 26.3361 70.4939 25.5654 70.4939 24.6941C70.4939 23.8564 70.9295 23.0521 71.8678 23.0521ZM101.161 11.5917C101.161 7.33588 105.115 5.32528 111.65 5.32528C118.184 5.32528 122.138 7.33588 122.138 11.5917C122.138 15.8475 118.184 17.8581 111.65 17.8581C105.115 17.8581 101.161 15.8475 101.161 11.5917ZM117.882 11.5917C117.882 9.91616 116.106 8.84384 111.65 8.84384C107.193 8.84384 105.417 9.91616 105.417 11.5917C105.417 13.2672 107.193 14.3395 111.65 14.3395C116.106 14.3395 117.882 13.2672 117.882 11.5917ZM124.316 23.7894H98.9827C97.9439 23.7894 97.4748 22.9516 97.4748 21.9798C97.4748 21.008 97.9439 20.1703 98.9827 20.1703H124.316C125.355 20.1703 125.824 21.008 125.824 21.9798C125.824 22.9516 125.355 23.7894 124.316 23.7894ZM106.187 31.8988H121.233C122.272 31.8988 122.741 32.7366 122.741 33.7083C122.741 34.6801 122.272 35.5179 121.233 35.5179H103.942C101.798 35.5179 101.094 34.8477 101.094 32.7366V27.5425C101.094 26.3026 102.133 25.7329 103.272 25.7329C104.378 25.7329 105.417 26.3026 105.417 27.5425V31.1281C105.417 31.6977 105.618 31.8988 106.187 31.8988Z" fill="#4A90E2"/>
<path d="M21.9438 41.8867H129.455" stroke="#A3C9F1" stroke-width="2.09438" stroke-linecap="round"/>
<path d="M6.496 53.368C6.96533 53.368 7.28533 53.4533 7.456 53.624C7.63733 53.7947 7.728 54.1093 7.728 54.568V55.72C7.728 56.2747 7.65867 56.7493 7.52 57.144C7.38133 57.528 7.104 57.9013 6.688 58.264C6.28267 58.6267 5.70133 59.0053 4.944 59.4C4.18667 59.7947 3.18933 60.2747 1.952 60.84C1.77067 60.9253 1.58933 60.9253 1.408 60.84C1.23733 60.7547 1.10933 60.6213 1.024 60.44C0.949333 60.2907 0.922667 60.12 0.944 59.928C0.976 59.7253 1.09867 59.5813 1.312 59.496C2.42133 58.9947 3.296 58.5787 3.936 58.248C4.576 57.9173 5.056 57.624 5.376 57.368C5.70667 57.1013 5.91467 56.84 6 56.584C6.08533 56.3173 6.128 56.008 6.128 55.656V55.08C6.128 54.9627 6.10133 54.8773 6.048 54.824C6.00533 54.7707 5.92 54.744 5.792 54.744H1.648C1.456 54.744 1.312 54.68 1.216 54.552C1.13067 54.4133 1.088 54.2533 1.088 54.072C1.088 53.88 1.13067 53.7147 1.216 53.576C1.312 53.4373 1.456 53.368 1.648 53.368H6.496ZM11.136 52.552C11.3493 52.552 11.536 52.6053 11.696 52.712C11.856 52.8187 11.936 52.9893 11.936 53.224V55.928H13.696C13.9093 55.928 14.0587 55.9973 14.144 56.136C14.24 56.2747 14.288 56.4347 14.288 56.616C14.288 56.8187 14.24 56.9893 14.144 57.128C14.0587 57.256 13.9093 57.32 13.696 57.32H11.936V60.216C11.936 60.4507 11.856 60.6213 11.696 60.728C11.536 60.8347 11.3493 60.888 11.136 60.888C10.9227 60.888 10.736 60.8347 10.576 60.728C10.416 60.6213 10.336 60.4507 10.336 60.216V53.224C10.336 52.9893 10.416 52.8187 10.576 52.712C10.736 52.6053 10.9227 52.552 11.136 52.552ZM10.704 61.576C11.1733 61.576 11.4933 61.6613 11.664 61.832C11.8453 62.0027 11.936 62.3173 11.936 62.776V66.024C11.936 66.4827 11.8453 66.7973 11.664 66.968C11.4933 67.1387 11.1733 67.224 10.704 67.224H3.984C3.51467 67.224 3.18933 67.1387 3.008 66.968C2.83733 66.7973 2.752 66.4827 2.752 66.024V62.776C2.752 62.3173 2.83733 62.0027 3.008 61.832C3.18933 61.6613 3.51467 61.576 3.984 61.576H10.704ZM4.672 62.92C4.448 62.92 4.336 63.032 4.336 63.256V65.544C4.336 65.768 4.448 65.88 4.672 65.88H10.016C10.24 65.88 10.352 65.768 10.352 65.544V63.256C10.352 63.032 10.24 62.92 10.016 62.92H4.672ZM23.0745 53.384C23.2665 53.384 23.4052 53.4533 23.4905 53.592C23.5865 53.7307 23.6345 53.8907 23.6345 54.072C23.6345 54.2533 23.5865 54.4133 23.4905 54.552C23.4052 54.68 23.2665 54.744 23.0745 54.744H20.5145V55.608C20.5145 56.12 20.5945 56.552 20.7545 56.904C20.9145 57.256 21.1865 57.5867 21.5705 57.896C21.9438 58.2053 22.2905 58.4827 22.6105 58.728C22.9412 58.9733 23.2292 59.1813 23.4745 59.352C23.6558 59.4907 23.7518 59.6507 23.7625 59.832C23.7732 60.0027 23.7198 60.168 23.6025 60.328C23.4958 60.456 23.3518 60.5573 23.1705 60.632C22.9998 60.696 22.8132 60.6587 22.6105 60.52C22.4292 60.392 22.1838 60.216 21.8745 59.992C21.5758 59.7573 21.2558 59.5013 20.9145 59.224C20.5092 58.904 20.2212 58.6427 20.0505 58.44C19.8905 58.2373 19.7892 58.056 19.7465 57.896H19.7305C19.6878 58.0773 19.5758 58.2747 19.3945 58.488C19.2238 58.7013 18.9358 58.9733 18.5305 59.304C18.1785 59.5813 17.8372 59.8427 17.5065 60.088C17.1758 60.3333 16.8558 60.5627 16.5465 60.776C16.3652 60.9147 16.1785 60.952 15.9865 60.888C15.8052 60.824 15.6665 60.7227 15.5705 60.584C15.4532 60.424 15.3998 60.2533 15.4105 60.072C15.4212 59.88 15.5172 59.7147 15.6985 59.576C16.0718 59.3093 16.4345 59.048 16.7865 58.792C17.1385 58.536 17.5012 58.2533 17.8745 57.944C18.2478 57.6347 18.5145 57.304 18.6745 56.952C18.8345 56.6 18.9145 56.1627 18.9145 55.64V54.744H16.2425C16.0398 54.744 15.8905 54.68 15.7945 54.552C15.7092 54.4133 15.6665 54.2533 15.6665 54.072C15.6665 53.8907 15.7092 53.7307 15.7945 53.592C15.8905 53.4533 16.0398 53.384 16.2425 53.384H23.0745ZM26.4985 52.552C26.7012 52.552 26.8825 52.6053 27.0425 52.712C27.2025 52.8187 27.2825 52.9893 27.2825 53.224V60.664C27.2825 60.888 27.2025 61.0533 27.0425 61.16C26.8825 61.2667 26.7012 61.32 26.4985 61.32C26.2852 61.32 26.0985 61.2667 25.9385 61.16C25.7785 61.0533 25.6985 60.888 25.6985 60.664V57.576H23.3945C23.1918 57.576 23.0425 57.5067 22.9465 57.368C22.8612 57.2293 22.8185 57.0693 22.8185 56.888C22.8185 56.696 22.8612 56.536 22.9465 56.408C23.0425 56.2693 23.1918 56.2 23.3945 56.2H25.6985V53.224C25.6985 52.9893 25.7785 52.8187 25.9385 52.712C26.0985 52.6053 26.2852 52.552 26.4985 52.552ZM22.6745 61.464C24.1678 61.464 25.3198 61.72 26.1305 62.232C26.9518 62.7333 27.3625 63.4853 27.3625 64.488C27.3625 65.4907 26.9518 66.2427 26.1305 66.744C25.3198 67.256 24.1678 67.512 22.6745 67.512C21.1812 67.512 20.0238 67.256 19.2025 66.744C18.3918 66.2427 17.9865 65.4907 17.9865 64.488C17.9865 63.4853 18.3918 62.7333 19.2025 62.232C20.0238 61.72 21.1812 61.464 22.6745 61.464ZM22.6745 62.76C21.5865 62.76 20.7972 62.92 20.3065 63.24C19.8158 63.5493 19.5705 63.9653 19.5705 64.488C19.5705 65.0213 19.8158 65.4427 20.3065 65.752C20.7972 66.0613 21.5865 66.216 22.6745 66.216C23.7625 66.216 24.5518 66.0613 25.0425 65.752C25.5332 65.4427 25.7785 65.0213 25.7785 64.488C25.7785 63.9547 25.5332 63.5333 25.0425 63.224C24.5518 62.9147 23.7625 62.76 22.6745 62.76ZM36.405 52.712C37.941 52.712 39.1357 52.92 39.989 53.336C40.8423 53.7413 41.269 54.3867 41.269 55.272C41.269 56.168 40.8423 56.824 39.989 57.24C39.1357 57.6453 37.941 57.848 36.405 57.848C34.869 57.848 33.6743 57.6453 32.821 57.24C31.9677 56.824 31.541 56.168 31.541 55.272C31.541 54.3867 31.9677 53.7413 32.821 53.336C33.6743 52.92 34.869 52.712 36.405 52.712ZM36.405 53.976C35.253 53.976 34.4157 54.088 33.893 54.312C33.381 54.536 33.125 54.856 33.125 55.272C33.125 55.688 33.381 56.0133 33.893 56.248C34.4157 56.472 35.253 56.584 36.405 56.584C37.557 56.584 38.389 56.472 38.901 56.248C39.4237 56.0133 39.685 55.688 39.685 55.272C39.685 54.856 39.4237 54.536 38.901 54.312C38.389 54.088 37.557 53.976 36.405 53.976ZM42.581 58.856C42.7623 58.856 42.8957 58.92 42.981 59.048C43.077 59.1653 43.125 59.3147 43.125 59.496C43.125 59.688 43.077 59.848 42.981 59.976C42.8957 60.104 42.7623 60.168 42.581 60.168H30.229C30.0477 60.168 29.909 60.104 29.813 59.976C29.7277 59.848 29.685 59.688 29.685 59.496C29.685 59.3147 29.7277 59.1653 29.813 59.048C29.909 58.92 30.0477 58.856 30.229 58.856H42.581ZM40.069 61.4C40.5383 61.4 40.8583 61.4853 41.029 61.656C41.2103 61.8267 41.301 62.1413 41.301 62.6V63.784C41.301 64.2427 41.2103 64.5573 41.029 64.728C40.8583 64.8987 40.5383 64.984 40.069 64.984H33.301C33.1303 64.984 33.045 65.064 33.045 65.224V65.88C33.045 66.04 33.1303 66.12 33.301 66.12H41.125C41.3063 66.12 41.4397 66.184 41.525 66.312C41.6103 66.44 41.653 66.584 41.653 66.744C41.653 66.9147 41.6103 67.0587 41.525 67.176C41.4397 67.304 41.3063 67.368 41.125 67.368H32.725C32.2557 67.368 31.9303 67.2827 31.749 67.112C31.5783 66.9413 31.493 66.6267 31.493 66.168V64.984C31.493 64.5253 31.5783 64.2107 31.749 64.04C31.9303 63.8693 32.2557 63.784 32.725 63.784H39.493C39.6637 63.784 39.749 63.704 39.749 63.544V62.904C39.749 62.7333 39.6637 62.648 39.493 62.648H31.973C31.7917 62.648 31.6583 62.5893 31.573 62.472C31.4983 62.344 31.461 62.1947 31.461 62.024C31.461 61.864 31.4983 61.72 31.573 61.592C31.6583 61.464 31.7917 61.4 31.973 61.4H40.069ZM55.1915 53.336C55.3835 53.336 55.5222 53.4053 55.6075 53.544C55.7035 53.6827 55.7515 53.8427 55.7515 54.024C55.7515 54.2053 55.7035 54.3653 55.6075 54.504C55.5222 54.6427 55.3835 54.712 55.1915 54.712H50.7755C50.5515 54.712 50.4395 54.8187 50.4395 55.032V58.232C50.4395 58.36 50.4662 58.4507 50.5195 58.504C50.5728 58.5467 50.6582 58.568 50.7755 58.568C51.8315 58.568 52.8128 58.5413 53.7195 58.488C54.6262 58.4347 55.5115 58.3493 56.3755 58.232C56.5568 58.2107 56.7008 58.2587 56.8075 58.376C56.9248 58.4827 56.9942 58.6267 57.0155 58.808C57.0368 59 57.0102 59.1707 56.9355 59.32C56.8715 59.4693 56.7488 59.5547 56.5675 59.576C56.1942 59.6293 55.7888 59.6773 55.3515 59.72C54.9248 59.7627 54.4502 59.8 53.9275 59.832C53.4048 59.864 52.8235 59.8907 52.1835 59.912C51.5542 59.9227 50.8502 59.928 50.0715 59.928C49.6022 59.928 49.2768 59.8427 49.0955 59.672C48.9248 59.5013 48.8395 59.1867 48.8395 58.728V54.536C48.8395 54.0773 48.9248 53.7627 49.0955 53.592C49.2768 53.4213 49.6022 53.336 50.0715 53.336H55.1915ZM58.8235 52.552C59.0368 52.552 59.2235 52.6053 59.3835 52.712C59.5435 52.8187 59.6235 52.9893 59.6235 53.224V55.928H61.3835C61.5968 55.928 61.7462 55.9973 61.8315 56.136C61.9275 56.2747 61.9755 56.4347 61.9755 56.616C61.9755 56.8187 61.9275 56.9893 61.8315 57.128C61.7462 57.256 61.5968 57.32 61.3835 57.32H59.6235V60.216C59.6235 60.4507 59.5435 60.6213 59.3835 60.728C59.2235 60.8347 59.0368 60.888 58.8235 60.888C58.6102 60.888 58.4235 60.8347 58.2635 60.728C58.1035 60.6213 58.0235 60.4507 58.0235 60.216V53.224C58.0235 52.9893 58.1035 52.8187 58.2635 52.712C58.4235 52.6053 58.6102 52.552 58.8235 52.552ZM58.3915 61.576C58.8608 61.576 59.1808 61.6613 59.3515 61.832C59.5328 62.0027 59.6235 62.3173 59.6235 62.776V66.024C59.6235 66.4827 59.5328 66.7973 59.3515 66.968C59.1808 67.1387 58.8608 67.224 58.3915 67.224H51.6715C51.2022 67.224 50.8768 67.1387 50.6955 66.968C50.5248 66.7973 50.4395 66.4827 50.4395 66.024V62.776C50.4395 62.3173 50.5248 62.0027 50.6955 61.832C50.8768 61.6613 51.2022 61.576 51.6715 61.576H58.3915ZM52.3595 62.92C52.1355 62.92 52.0235 63.032 52.0235 63.256V65.544C52.0235 65.768 52.1355 65.88 52.3595 65.88H57.7035C57.9275 65.88 58.0395 65.768 58.0395 65.544V63.256C58.0395 63.032 57.9275 62.92 57.7035 62.92H52.3595ZM66.778 53.384C68.0153 53.384 68.9487 53.7893 69.578 54.6C70.2073 55.4107 70.522 56.5947 70.522 58.152C70.522 59.7093 70.2073 60.8933 69.578 61.704C68.9487 62.5147 68.0153 62.92 66.778 62.92C65.5407 62.92 64.6073 62.5147 63.978 61.704C63.3593 60.8933 63.05 59.7093 63.05 58.152C63.05 56.5947 63.3593 55.4107 63.978 54.6C64.6073 53.7893 65.5407 53.384 66.778 53.384ZM66.778 54.792C65.9993 54.792 65.4393 55.08 65.098 55.656C64.7673 56.2213 64.602 57.0533 64.602 58.152C64.602 59.2507 64.7673 60.088 65.098 60.664C65.4393 61.2293 65.9993 61.512 66.778 61.512C67.5673 61.512 68.1273 61.2293 68.458 60.664C68.7993 60.088 68.97 59.2507 68.97 58.152C68.97 57.0533 68.7993 56.2213 68.458 55.656C68.1273 55.08 67.5673 54.792 66.778 54.792ZM73.386 52.552C73.5993 52.552 73.786 52.6053 73.946 52.712C74.106 52.8187 74.186 52.9893 74.186 53.224V57.384H75.946C76.1593 57.384 76.3087 57.4533 76.394 57.592C76.49 57.72 76.538 57.88 76.538 58.072C76.538 58.264 76.49 58.4293 76.394 58.568C76.3087 58.7067 76.1593 58.776 75.946 58.776H74.186V65.704C74.186 65.9387 74.106 66.1093 73.946 66.216C73.786 66.3227 73.5993 66.376 73.386 66.376C73.1727 66.376 72.986 66.3227 72.826 66.216C72.666 66.1093 72.586 65.9387 72.586 65.704V53.224C72.586 52.9893 72.666 52.8187 72.826 52.712C72.986 52.6053 73.1727 52.552 73.386 52.552ZM78.6365 53.592C78.8498 53.592 79.0365 53.6453 79.1965 53.752C79.3672 53.8587 79.4525 54.0347 79.4525 54.28V60.84C79.4525 61.064 79.5645 61.176 79.7885 61.176C80.0765 61.176 80.3858 61.1707 80.7165 61.16C81.0578 61.1493 81.3992 61.1333 81.7405 61.112C82.0818 61.0907 82.4178 61.064 82.7485 61.032C83.0792 61 83.3832 60.9627 83.6605 60.92C83.8418 60.8987 83.9858 60.9467 84.0925 61.064C84.1992 61.1707 84.2632 61.32 84.2845 61.512C84.3058 61.704 84.2792 61.8747 84.2045 62.024C84.1405 62.1733 84.0178 62.264 83.8365 62.296C83.4312 62.36 82.8125 62.4187 81.9805 62.472C81.1485 62.5253 80.1778 62.552 79.0685 62.552C78.5992 62.552 78.2738 62.4667 78.0925 62.296C77.9218 62.1253 77.8365 61.8107 77.8365 61.352V54.28C77.8365 54.0347 77.9165 53.8587 78.0765 53.752C78.2365 53.6453 78.4232 53.592 78.6365 53.592ZM89.1485 52.552C89.3405 52.552 89.5112 52.6053 89.6605 52.712C89.8205 52.808 89.9005 52.9627 89.9005 53.176V65.752C89.9005 65.9653 89.8205 66.12 89.6605 66.216C89.5112 66.3227 89.3405 66.376 89.1485 66.376C88.9672 66.376 88.7965 66.3227 88.6365 66.216C88.4872 66.12 88.4125 65.9653 88.4125 65.752V58.824H86.6045V65.08C86.6045 65.2933 86.5245 65.448 86.3645 65.544C86.2152 65.6507 86.0445 65.704 85.8525 65.704C85.6712 65.704 85.5005 65.6507 85.3405 65.544C85.1912 65.448 85.1165 65.2933 85.1165 65.08V53.336C85.1165 53.1227 85.1912 52.968 85.3405 52.872C85.5005 52.7653 85.6712 52.712 85.8525 52.712C86.0445 52.712 86.2152 52.7653 86.3645 52.872C86.5245 52.968 86.6045 53.1227 86.6045 53.336V57.464H88.4125V53.176C88.4125 52.9627 88.4872 52.808 88.6365 52.712C88.7965 52.6053 88.9672 52.552 89.1485 52.552ZM94.591 52.92C94.8043 52.92 94.991 52.9733 95.151 53.08C95.311 53.1867 95.391 53.3627 95.391 53.608V56.696C95.391 56.9093 95.503 57.016 95.727 57.016H103.231C103.423 57.016 103.562 57.0853 103.647 57.224C103.743 57.3627 103.791 57.5227 103.791 57.704C103.791 57.8853 103.743 58.0453 103.647 58.184C103.562 58.312 103.423 58.376 103.231 58.376H95.007C94.5377 58.376 94.2177 58.2907 94.047 58.12C93.8763 57.9493 93.791 57.6347 93.791 57.176V53.608C93.791 53.3627 93.871 53.1867 94.031 53.08C94.191 52.9733 94.3777 52.92 94.591 52.92ZM104.815 60.056C105.007 60.056 105.146 60.1253 105.231 60.264C105.327 60.392 105.375 60.5467 105.375 60.728C105.375 60.9093 105.327 61.0693 105.231 61.208C105.146 61.3467 105.007 61.416 104.815 61.416H92.495C92.303 61.416 92.159 61.3467 92.063 61.208C91.9777 61.0693 91.935 60.9093 91.935 60.728C91.935 60.5467 91.9777 60.392 92.063 60.264C92.159 60.1253 92.303 60.056 92.495 60.056H104.815ZM94.559 62.632C94.7723 62.632 94.959 62.6853 95.119 62.792C95.279 62.8987 95.359 63.0693 95.359 63.304V65.48C95.359 65.704 95.471 65.816 95.695 65.816H103.263C103.455 65.816 103.594 65.88 103.679 66.008C103.775 66.1467 103.823 66.3067 103.823 66.488C103.823 66.6693 103.775 66.8293 103.679 66.968C103.594 67.1067 103.455 67.176 103.263 67.176H94.975C94.5057 67.176 94.1857 67.0907 94.015 66.92C93.8443 66.7493 93.759 66.4347 93.759 65.976V63.304C93.759 63.0693 93.839 62.8987 93.999 62.792C94.159 62.6853 94.3457 62.632 94.559 62.632ZM120.738 52.984C121.207 52.984 121.527 53.0693 121.698 53.24C121.879 53.4107 121.97 53.7253 121.97 54.184V54.968C121.97 55.7253 121.9 56.4507 121.762 57.144C121.634 57.8267 121.484 58.392 121.314 58.84L119.89 58.52C120.21 57.4533 120.37 56.328 120.37 55.144V54.696C120.37 54.568 120.343 54.4827 120.29 54.44C120.247 54.3867 120.162 54.36 120.034 54.36H112.738C112.546 54.36 112.407 54.2907 112.322 54.152C112.236 54.0133 112.194 53.8533 112.194 53.672C112.194 53.4907 112.236 53.3307 112.322 53.192C112.407 53.0533 112.546 52.984 112.738 52.984H120.738ZM123.394 58.152C123.575 58.152 123.708 58.216 123.794 58.344C123.89 58.4613 123.938 58.6107 123.938 58.792C123.938 58.984 123.89 59.144 123.794 59.272C123.708 59.4 123.575 59.464 123.394 59.464H111.042C110.86 59.464 110.722 59.4 110.626 59.272C110.54 59.144 110.498 58.984 110.498 58.792C110.498 58.6107 110.54 58.4613 110.626 58.344C110.722 58.216 110.86 58.152 111.042 58.152H123.394ZM120.882 60.984C121.351 60.984 121.671 61.0693 121.842 61.24C122.023 61.4107 122.114 61.7253 122.114 62.184V63.56C122.114 64.0187 122.023 64.3333 121.842 64.504C121.671 64.6747 121.351 64.76 120.882 64.76H114.114C113.943 64.76 113.858 64.84 113.858 65V65.832C113.858 65.992 113.943 66.072 114.114 66.072H121.938C122.119 66.072 122.252 66.136 122.338 66.264C122.423 66.392 122.466 66.536 122.466 66.696C122.466 66.8667 122.423 67.016 122.338 67.144C122.252 67.272 122.119 67.336 121.938 67.336H113.538C113.068 67.336 112.743 67.2507 112.562 67.08C112.391 66.9093 112.306 66.5947 112.306 66.136V64.744C112.306 64.2853 112.391 63.976 112.562 63.816C112.743 63.6453 113.068 63.56 113.538 63.56H120.306C120.476 63.56 120.562 63.4747 120.562 63.304V62.504C120.562 62.3333 120.476 62.248 120.306 62.248H112.786C112.604 62.248 112.471 62.184 112.386 62.056C112.311 61.928 112.274 61.784 112.274 61.624C112.274 61.4533 112.311 61.304 112.386 61.176C112.471 61.048 112.604 60.984 112.786 60.984H120.882ZM129.156 53.272C129.369 53.272 129.556 53.3253 129.716 53.432C129.876 53.5387 129.956 53.704 129.956 53.928V55.224C129.956 55.5333 129.967 55.816 129.988 56.072C130.009 56.3173 130.047 56.5467 130.1 56.76C130.164 56.9733 130.239 57.176 130.324 57.368C130.42 57.56 130.543 57.7573 130.692 57.96C130.841 58.1733 130.985 58.3653 131.124 58.536C131.263 58.7067 131.391 58.856 131.508 58.984C131.615 59.1013 131.705 59.16 131.78 59.16C131.855 59.16 131.945 59.1013 132.052 58.984C132.169 58.856 132.297 58.7067 132.436 58.536C132.575 58.3653 132.719 58.1733 132.868 57.96C133.007 57.7573 133.124 57.56 133.22 57.368C133.316 57.176 133.391 56.9733 133.444 56.76C133.508 56.5467 133.551 56.3173 133.572 56.072C133.593 55.816 133.604 55.5333 133.604 55.224V53.928C133.604 53.704 133.684 53.5387 133.844 53.432C134.004 53.3253 134.191 53.272 134.404 53.272C134.607 53.272 134.788 53.3253 134.948 53.432C135.108 53.5387 135.188 53.704 135.188 53.928V55.224C135.188 55.5547 135.199 55.848 135.22 56.104C135.252 56.3493 135.305 56.5787 135.38 56.792C135.455 57.0053 135.551 57.2133 135.668 57.416C135.785 57.608 135.94 57.8053 136.132 58.008C136.409 58.3173 136.671 58.5947 136.916 58.84C137.161 59.0747 137.412 59.3093 137.668 59.544C137.817 59.672 137.887 59.8373 137.876 60.04C137.865 60.232 137.791 60.4027 137.652 60.552C137.513 60.7013 137.353 60.7867 137.172 60.808C137.001 60.8187 136.831 60.7493 136.66 60.6C136.447 60.408 136.228 60.2053 136.004 59.992C135.78 59.768 135.567 59.5493 135.364 59.336C135.023 58.9733 134.783 58.6853 134.644 58.472C134.516 58.248 134.436 58.0453 134.404 57.864H134.388C134.367 58.0453 134.303 58.2427 134.196 58.456C134.089 58.6693 133.908 58.936 133.652 59.256C133.471 59.4693 133.295 59.672 133.124 59.864C132.953 60.056 132.777 60.2427 132.596 60.424C132.052 60.9467 131.508 60.9467 130.964 60.424C130.783 60.2427 130.607 60.056 130.436 59.864C130.265 59.672 130.089 59.4693 129.908 59.256C129.652 58.936 129.471 58.6693 129.364 58.456C129.257 58.2427 129.193 58.0453 129.172 57.864H129.156C129.135 58.0453 129.055 58.248 128.916 58.472C128.777 58.6853 128.537 58.9733 128.196 59.336C127.993 59.5493 127.78 59.768 127.556 59.992C127.332 60.2053 127.113 60.408 126.9 60.6C126.74 60.7493 126.569 60.8187 126.388 60.808C126.207 60.7867 126.047 60.7013 125.908 60.552C125.769 60.4027 125.695 60.232 125.684 60.04C125.673 59.8373 125.743 59.672 125.892 59.544C126.159 59.3093 126.409 59.0747 126.644 58.84C126.889 58.5947 127.151 58.3173 127.428 58.008C127.62 57.8053 127.775 57.608 127.892 57.416C128.009 57.2133 128.105 57.0053 128.18 56.792C128.255 56.5787 128.303 56.3493 128.324 56.104C128.356 55.848 128.372 55.5547 128.372 55.224V53.928C128.372 53.704 128.452 53.5387 128.612 53.432C128.772 53.3253 128.953 53.272 129.156 53.272ZM137.94 63.608C138.132 63.608 138.271 63.6773 138.356 63.816C138.452 63.944 138.5 64.104 138.5 64.296C138.5 64.4773 138.452 64.6373 138.356 64.776C138.271 64.9147 138.132 64.984 137.94 64.984H125.62C125.428 64.984 125.284 64.9147 125.188 64.776C125.103 64.6373 125.06 64.4773 125.06 64.296C125.06 64.104 125.103 63.944 125.188 63.816C125.284 63.6773 125.428 63.608 125.62 63.608H137.94ZM145.911 53.64C146.38 53.64 146.7 53.7253 146.871 53.896C147.052 54.0667 147.142 54.3813 147.142 54.84V56.648C147.142 57.096 147.116 57.5013 147.062 57.864C147.009 58.216 146.908 58.552 146.759 58.872C146.609 59.192 146.401 59.5067 146.135 59.816C145.868 60.1147 145.521 60.4347 145.095 60.776C144.679 61.1067 144.172 61.4693 143.575 61.864C142.977 62.2587 142.268 62.7067 141.447 63.208C141.265 63.3147 141.084 63.336 140.903 63.272C140.721 63.1973 140.577 63.0853 140.471 62.936C140.364 62.7867 140.311 62.6107 140.311 62.408C140.321 62.2053 140.417 62.0453 140.599 61.928C141.356 61.4693 142.001 61.0693 142.535 60.728C143.079 60.376 143.532 60.0613 143.895 59.784C144.257 59.496 144.545 59.2347 144.759 59C144.983 58.7547 145.153 58.5147 145.271 58.28C145.388 58.0347 145.463 57.7787 145.495 57.512C145.527 57.2347 145.543 56.9253 145.543 56.584V55.352C145.543 55.2347 145.516 55.1547 145.463 55.112C145.42 55.0587 145.335 55.032 145.207 55.032H141.047C140.844 55.032 140.695 54.9627 140.599 54.824C140.513 54.6853 140.471 54.5253 140.471 54.344C140.471 54.152 140.513 53.9867 140.599 53.848C140.695 53.7093 140.844 53.64 141.047 53.64H145.911ZM150.871 52.552C151.084 52.552 151.271 52.6053 151.431 52.712C151.601 52.8187 151.687 52.9893 151.687 53.224V65.704C151.687 65.9387 151.601 66.1093 151.431 66.216C151.271 66.3227 151.084 66.376 150.871 66.376C150.668 66.376 150.481 66.3227 150.311 66.216C150.151 66.1093 150.071 65.9387 150.071 65.704V53.224C150.071 52.9893 150.151 52.8187 150.311 52.712C150.481 52.6053 150.668 52.552 150.871 52.552ZM168.553 53.144C169.022 53.144 169.342 53.2293 169.513 53.4C169.694 53.5707 169.785 53.8853 169.785 54.344V55.416C169.785 55.864 169.758 56.2853 169.705 56.68C169.662 57.064 169.588 57.4213 169.481 57.752C169.417 57.9653 169.289 58.1147 169.097 58.2C168.916 58.2853 168.718 58.3013 168.505 58.248C168.292 58.1947 168.132 58.0987 168.025 57.96C167.918 57.8213 167.892 57.6453 167.945 57.432C168.03 57.0907 168.089 56.7547 168.121 56.424C168.164 56.0933 168.185 55.7413 168.185 55.368V54.856C168.185 54.6427 168.073 54.536 167.849 54.536H160.393C160.201 54.536 160.062 54.4667 159.977 54.328C159.892 54.1893 159.849 54.0293 159.849 53.848C159.849 53.656 159.892 53.4907 159.977 53.352C160.062 53.2133 160.201 53.144 160.393 53.144H168.553ZM163.897 56.424C164.11 56.424 164.297 56.4773 164.457 56.584C164.617 56.6907 164.697 56.856 164.697 57.08V59.24H171.065C171.257 59.24 171.396 59.304 171.481 59.432C171.577 59.56 171.625 59.7147 171.625 59.896C171.625 60.0773 171.577 60.2373 171.481 60.376C171.396 60.5147 171.257 60.584 171.065 60.584H158.745C158.553 60.584 158.409 60.5147 158.313 60.376C158.228 60.2373 158.185 60.0773 158.185 59.896C158.185 59.7147 158.228 59.56 158.313 59.432C158.409 59.304 158.553 59.24 158.745 59.24H163.113V57.08C163.113 56.856 163.193 56.6907 163.353 56.584C163.513 56.4773 163.694 56.424 163.897 56.424ZM164.905 61.88C166.452 61.88 167.652 62.1147 168.505 62.584C169.369 63.0533 169.801 63.7627 169.801 64.712C169.801 65.6613 169.369 66.3707 168.505 66.84C167.652 67.3093 166.452 67.544 164.905 67.544C163.358 67.544 162.153 67.3093 161.289 66.84C160.436 66.3707 160.009 65.6613 160.009 64.712C160.009 63.7627 160.436 63.0533 161.289 62.584C162.153 62.1147 163.358 61.88 164.905 61.88ZM164.905 63.16C163.742 63.16 162.9 63.2987 162.377 63.576C161.854 63.8533 161.593 64.232 161.593 64.712C161.593 65.192 161.854 65.5707 162.377 65.848C162.9 66.1253 163.742 66.264 164.905 66.264C166.068 66.264 166.91 66.1253 167.433 65.848C167.956 65.5707 168.217 65.192 168.217 64.712C168.217 64.232 167.956 63.8533 167.433 63.576C166.91 63.2987 166.068 63.16 164.905 63.16ZM178.684 53.496C179.153 53.496 179.473 53.5813 179.644 53.752C179.825 53.9227 179.916 54.2373 179.916 54.696V56.008C179.916 56.5733 179.846 57.0587 179.708 57.464C179.569 57.8693 179.292 58.264 178.876 58.648C178.47 59.032 177.889 59.4373 177.132 59.864C176.385 60.2907 175.398 60.8133 174.172 61.432C173.99 61.5173 173.804 61.5227 173.612 61.448C173.43 61.3627 173.297 61.2347 173.212 61.064C173.137 60.904 173.105 60.728 173.116 60.536C173.137 60.3333 173.254 60.184 173.468 60.088C174.204 59.7253 174.833 59.4053 175.356 59.128C175.889 58.8507 176.337 58.6 176.7 58.376C177.062 58.152 177.35 57.9493 177.564 57.768C177.777 57.576 177.937 57.3893 178.044 57.208C178.161 57.0267 178.236 56.84 178.268 56.648C178.3 56.4453 178.316 56.216 178.316 55.96V55.208C178.316 55.0907 178.289 55.0107 178.236 54.968C178.193 54.9147 178.108 54.888 177.98 54.888H173.852C173.649 54.888 173.5 54.8187 173.404 54.68C173.318 54.5413 173.276 54.3813 173.276 54.2C173.276 54.008 173.318 53.8427 173.404 53.704C173.5 53.5653 173.649 53.496 173.852 53.496H178.684ZM183.324 52.552C183.537 52.552 183.724 52.6053 183.884 52.712C184.044 52.8187 184.124 52.9893 184.124 53.224V56.648H185.884C186.097 56.648 186.246 56.7173 186.332 56.856C186.428 56.9947 186.476 57.1547 186.476 57.336C186.476 57.5387 186.428 57.7093 186.332 57.848C186.246 57.976 186.097 58.04 185.884 58.04H184.124V62.696C184.124 62.9307 184.044 63.1013 183.884 63.208C183.724 63.3147 183.537 63.368 183.324 63.368C183.11 63.368 182.924 63.3147 182.764 63.208C182.604 63.1013 182.524 62.9307 182.524 62.696V53.224C182.524 52.9893 182.604 52.8187 182.764 52.712C182.924 52.6053 183.11 52.552 183.324 52.552ZM175.756 62.024C175.958 62.024 176.14 62.0773 176.299 62.184C176.47 62.2907 176.556 62.4613 176.556 62.696V65.4C176.556 65.5173 176.577 65.5973 176.62 65.64C176.673 65.6933 176.764 65.72 176.891 65.72H183.932C184.134 65.72 184.278 65.7893 184.364 65.928C184.46 66.0667 184.508 66.232 184.508 66.424C184.508 66.6053 184.46 66.7653 184.364 66.904C184.278 67.0427 184.134 67.112 183.932 67.112H176.172C175.702 67.112 175.377 67.0267 175.196 66.856C175.025 66.6853 174.94 66.3707 174.94 65.912V62.696C174.94 62.4613 175.02 62.2907 175.18 62.184C175.35 62.0773 175.542 62.024 175.756 62.024Z" fill="black"/>
<defs>
<linearGradient id="paint0_linear_132_647" x1="-22.8328" y1="14.7296" x2="17.2061" y2="56.1096" gradientUnits="userSpaceOnUse">
<stop offset="0.44" stop-color="#A3C9F1"/>
</linearGradient>
</defs>
</svg>
